<?xml version="1.0" encoding="utf-8"?>
<svg id="Layer_1" x="0px" y="0px" width="1024px" height="768px" viewBox="0 0 1024 768" xmlns="http://www.w3.org/2000/svg">
  <path d="M747.205,634.203c6.359-18.146,5.723-38.509-1.771-56.209c-4.881-25.209-26.571-44.389-52.944-45.278&#10;&#9;c-18.685-4.646-38.695-2.125-55.654,7.12c2.068-2.273,4.236-4.4,6.604-6.429c28.046-21.8,65.416-23.925,93.314-0.791&#10;&#9;C767.17,557.876,771.807,603.407,747.205,634.203L747.205,634.203z M688.445,644.829c0.787,5.54,0.735,11.223-0.244,16.709&#10;&#9;c-34.361-1.137-62.508-26.199-68.822-58.775c5.131-1.78,10.65-2.815,16.371-2.868C640.828,625.256,663.057,643.89,688.445,644.829&#10;&#9;L688.445,644.829z M728.227,656.148c5.472-15.273,6.013-32.178,1.578-47.8c0.193-34.751-30.467-61.148-64.526-55.862&#10;&#9;c-16.115-2.122-32.535,0.791-46.832,8.504c25.188-29.953,71.479-34.255,101.649-9.194c16.121,13.346,26.367,33.517,26.367,56.107&#10;&#9;C746.463,626.39,739.566,643.297,728.227,656.148L728.227,656.148z M701.26,573.052c31.31,25.955,35.394,72.324,9.074,103.218&#10;&#9;c4.779-14.828,4.979-31.041,0.643-46.023c0.588-36.379-32.887-63.814-68.325-55.757c-11.781,0-23.615,0-35.447,0&#10;&#9;C633.631,551.501,674.398,550.812,701.26,573.052L701.26,573.052z M688.15,661.836c-3.205,17.746-16.316,34.456-33.621,40.043&#10;&#9;c-34.017,0.244-62.062-22.196-69.949-55.665c2.264-19.476,15.283-36.084,33.521-42.955&#10;&#9;C615.146,641.565,651.029,671.672,688.15,661.836L688.15,661.836z M678.734,680.223c-39.437,2.672-73.996-26.147-77.197-66.777&#10;&#9;C587.391,661.34,637.572,699.454,678.734,680.223L678.734,680.223z M919.594,532.665l-174.951-0.049&#10;&#9;c-12.227-9.095-19.075-13.742-28.641-16.66h203.592C930.535,515.956,930.535,532.665,919.594,532.665L919.594,532.665z&#10;&#9; M339.876,661.538c-0.94-5.486-1.037-11.169-0.25-16.709c25.439-0.939,47.668-19.573,52.701-44.935&#10;&#9;c5.765,0.052,11.239,1.087,16.415,2.867C402.43,635.339,374.284,660.401,339.876,661.538L339.876,661.538z M335.585,532.716&#10;&#9;c-26.323,0.891-48.06,20.069-52.94,45.278c-7.446,17.7-8.089,38.062-1.727,56.209c-24.6-30.796-19.964-76.327,10.451-101.587&#10;&#9;c27.898-23.134,65.216-21.009,93.316,0.791c2.317,2.028,4.537,4.153,6.607,6.429C374.334,530.591,354.319,528.069,335.585,532.716&#10;&#9;L335.585,532.716z M373.593,701.879c-17.302-5.587-30.416-22.297-33.62-40.043c37.069,9.836,73.009-20.271,70.05-58.577&#10;&#9;c18.237,6.871,31.254,23.479,33.522,42.955C435.608,679.683,407.609,702.123,373.593,701.879L373.593,701.879z M426.584,613.444&#10;&#9;c-3.2,40.63-37.758,69.449-77.196,66.777C390.501,699.454,440.733,661.34,426.584,613.444L426.584,613.444z M317.15,630.245&#10;&#9;c-4.389,14.982-4.14,31.195,0.639,46.023c-26.323-30.894-22.229-77.263,9.07-103.218c26.868-22.24,67.587-21.551,94.058,1.438&#10;&#9;c-11.829,0-23.662,0-35.495,0C349.982,566.431,316.509,593.866,317.15,630.245L317.15,630.245z M362.848,552.486&#10;&#9;c-34.064-5.286-64.729,21.111-64.526,55.862c-4.438,15.622-3.895,32.525,1.576,47.8c-11.338-12.853-18.238-29.76-18.238-48.245&#10;&#9;c0-22.591,10.25-42.763,26.373-56.107c30.167-25.061,76.456-20.759,101.646,9.194C395.331,553.277,378.916,550.364,362.848,552.486&#10;&#9;L362.848,552.486z M283.482,532.616l-174.953,0.049c-10.942,0-10.942-16.709,0-16.709h203.592&#10;&#9;C302.558,518.874,295.706,523.521,283.482,532.616L283.482,532.616z M636.439,724.91c-65.123,0-96.379-79.093-51.22-124.273h29.08&#10;&#9;c-19.864,8.603-33.762,28.425-33.762,51.509c0,30.948,25.037,56.057,55.899,56.057c36.527-0.441,58.072-31.044,55.753-60.505&#10;&#9;c-1.283-16.808-10.201-33.514-26.072-43.203c-9.273-5.587-21.248-8.354-35.551-8.454c-77.689,0.051-155.326,0.051-233.02,0&#10;&#9;c-14.296,0.101-26.323,2.867-35.541,8.454c-15.922,9.689-24.794,26.396-26.079,43.203c-2.316,29.461,19.177,60.062,55.704,60.505&#10;&#9;c30.908,0,55.95-25.107,55.95-56.057c0-23.084-13.9-42.906-33.815-51.509H442.9c45.154,45.182,13.904,124.273-51.269,124.273&#10;&#9;c-40.026,0-72.515-32.572-72.515-72.766c0-39.939,32.046-72.369,71.777-72.766c82.029,0.446,164.252,0.446,246.279,0&#10;&#9;c39.732,0.396,71.826,32.825,71.826,72.766C709.002,692.338,676.516,724.91,636.439,724.91L636.439,724.91z M518.818,550.016&#10;&#9;c-17.304,0-26.963-14.63-26.963-30.797c0-10.132,3.301-15.914,8.969-25.751c4.686-8.107,10.848-18.785,17.947-36.334&#10;&#9;c7.245,17.943,13.456,28.67,18.139,36.779c5.57,9.586,8.875,15.271,8.875,25.306C545.785,535.386,536.119,550.016,518.818,550.016&#10;&#9;L518.818,550.016z M509.352,498.708c-1.526-1.289-3.842-1.137-5.176,0.393c-3.697,4.398-7.887,12.704-7.197,18.54&#10;&#9;c0.199,1.975,2.023,3.409,4.043,3.211c2.021-0.248,3.453-2.073,3.205-4.104c-0.442-3.608,3.203-10.133,5.521-12.854&#10;&#9;C511.027,502.361,510.885,500.043,509.352,498.708L509.352,498.708z" style="fill: rgb(255, 255, 255);"/>
  <path d="M359.872,140.944v-16.745h40.945v46.385c-4.613,10.2-17.877,24.826-41.14,24.826c-24.799,0-44.981-18.285-44.981-43.11&#10;&#9;V98.408c0-25.02,20.182-43.303,45.175-43.303c17.492,0,32.678,9.238,40.177,23.289v13.664h-14.805&#10;&#9;c-3.267-10.971-13.455-19.052-25.372-19.052c-14.805,0-26.529,11.739-26.529,26.56v51.772c0,14.627,11.725,26.561,26.529,26.561&#10;&#9;c9.225,0,17.299-5.005,22.3-11.357v-25.597L359.872,140.944L359.872,140.944z M496.553,192.718l-11.149-40.612h-44.212&#10;&#9;l-10.961,40.612h-15.567v-12.896c3.649-11.935,33.64-110.282,37.294-121.831h22.875l37.1,121.635v13.091L496.553,192.718&#10;&#9;L496.553,192.718z M463.296,70.502l-17.493,64.858h34.987L463.296,70.502L463.296,70.502z M622.088,192.718v-82.57&#10;&#9;c0-2.308,0.385-17.706,0.385-22.711c-1.149,2.118-8.459,15.782-9.805,17.9c-4.807,7.508-20.568,32.333-26.527,41.187&#10;&#9;c-5.573-8.66-21.916-34.064-26.528-41.187c-1.347-1.924-9.035-15.589-10.381-18.09c0.192,2.501,0.961,20.592,0.961,23.095v82.375&#10;&#9;h-18.646V57.991h18.836L586.33,114l35.758-56.009h18.646v134.727H622.088L622.088,192.718z M707.305,177.898&#10;&#9;c12.111,0,22.301-8.276,25.377-19.441h14.802v13.664c-7.503,14.246-22.687,23.289-40.371,23.289c-24.8,0-44.982-18.285-44.982-43.11&#10;&#9;V98.408c0-25.02,20.185-43.303,45.176-43.303c17.492,0,32.677,9.238,40.179,23.289v13.664h-14.802&#10;&#9;c-3.272-10.971-13.461-19.052-25.377-19.052c-14.803,0-26.526,11.739-26.526,26.56v16.935h50.362v16.744h-50.362v18.094&#10;&#9;C680.777,165.964,692.502,177.898,707.305,177.898L707.305,177.898z M486.128,303.379c-17.785,0-32.229-16.122-32.229-33.929&#10;&#9;v-35.611c0-17.806,14.444-30.928,32.229-30.928c17.918,0,32.362,13.122,32.362,30.928v35.611&#10;&#9;C518.49,287.257,504.047,303.379,486.128,303.379L486.128,303.379z M502.309,234.375c0-8.837-7.219-16.07-16.18-16.07&#10;&#9;c-8.828,0-16.047,7.232-16.047,16.07v34.54c0,8.837,7.219,16.065,16.047,16.065c8.961,0,16.18-7.228,16.18-16.065V234.375&#10;&#9;L502.309,234.375z M552.814,221.472v27.763h23.366v14.595h-23.366v34.674h-20.361v-93.719h44.395v16.687H552.814L552.814,221.472z&#10;&#9; M350.549,448.553c-24.799,0-44.984-18.285-44.984-43.108v-53.894c0-25.02,20.186-43.304,45.174-43.304&#10;&#9;c24.799,0,44.984,18.284,44.984,43.304v53.894C395.723,430.268,375.537,448.553,350.549,448.553L350.549,448.553z M377.077,352.708&#10;&#9;c0-14.821-11.728-26.561-26.339-26.561c-14.801,0-26.529,11.739-26.529,26.561v51.772c0,14.627,11.729,26.56,26.529,26.56&#10;&#9;c14.611,0,26.339-11.933,26.339-26.56V352.708L377.077,352.708z M485.694,445.861v-59.665h-45.751v59.665h-18.65V311.134h18.65&#10;&#9;v58.318h45.751v-58.318h18.646v134.729L485.694,445.861L485.694,445.861z M623.389,445.861v-82.57&#10;&#9;c0-2.309,0.385-17.706,0.385-22.711c-1.157,2.118-8.463,15.783-9.805,17.901c-4.809,7.507-20.567,32.331-26.526,41.185&#10;&#9;c-5.576-8.658-21.916-34.062-26.531-41.185c-1.347-1.925-9.035-15.59-10.381-18.092c0.194,2.502,0.963,20.594,0.963,23.097v82.376&#10;&#9;h-18.648V311.134h18.838l35.949,56.01l35.758-56.01h18.646v134.729L623.389,445.861L623.389,445.861z M708.023,325.569&#10;&#9;c-13.843,0-23.646,11.356-23.646,22.9c0,12.318,10.383,23.29,23.646,23.29v-8.274c24.801,0,46.332,15.78,46.332,42.536&#10;&#9;c0,23.284-20.382,42.146-45.562,42.146h-0.387c-17.297,0-33.447-8.659-41.904-23.867v-12.507h15.762&#10;&#9;c1.349,6.351,8.847,19.437,26.144,19.437c14.807,0,26.34-11.739,26.34-25.402c0-13.666-10.959-25.405-26.527-25.405v8.66&#10;&#9;c-24.227,0-43.448-17.322-43.448-40.612c0-20.977,17.303-40.606,43.448-40.606c20.951,0,33.254,12.896,37.482,20.014v12.512h-15.379&#10;&#9;C728.018,333.845,720.521,325.569,708.023,325.569L708.023,325.569z" style="fill: rgb(255, 255, 255);"/>
</svg>